<?xml version="1.0" standalone="no"?>
<!DOCTYPE svg PUBLIC "-//W3C//DTD SVG 20010904//EN"
 "http://www.w3.org/TR/2001/REC-SVG-20010904/DTD/svg10.dtd">
<svg version="1.0" xmlns="http://www.w3.org/2000/svg"
 width="261.000000pt" height="261.000000pt" viewBox="0 0 261.000000 261.000000"
 preserveAspectRatio="xMidYMid meet">
<metadata>
Created by potrace 1.11, written by Peter Selinger 2001-2013
</metadata>
<g transform="translate(0.000000,261.000000) scale(0.100000,-0.100000)"
fill="#000000" stroke="none">
<path d="M1287 2604 c-1 -1 -39 -4 -85 -7 -46 -3 -85 -7 -87 -9 -3 -2 -41 -77
-85 -166 -108 -215 -90 -208 -318 -129 l-172 59 -48 -38 c-60 -48 -148 -136
-195 -195 l-37 -46 54 -162 c30 -89 57 -165 60 -170 3 -5 -1 -25 -9 -46 -15
-33 -28 -42 -179 -115 l-163 -80 -7 -51 c-8 -55 -9 -241 -2 -274 3 -11 5 -32
5 -46 1 -23 18 -33 165 -105 221 -106 214 -90 134 -322 l-60 -173 49 -57 c58
-68 121 -131 185 -182 l48 -39 175 61 175 60 32 -19 c26 -15 47 -49 105 -163
39 -80 72 -151 72 -157 1 -22 51 -28 222 -28 112 0 171 4 180 12 8 6 48 81 89
167 102 211 86 204 315 127 l174 -59 38 30 c101 79 246 238 238 261 -2 6 -29
85 -59 174 -73 216 -81 199 135 305 l167 82 5 41 c3 22 4 109 3 194 -3 139 -5
155 -22 164 -10 6 -86 45 -169 87 -197 99 -191 82 -114 309 l58 174 -29 38
c-44 54 -158 169 -207 207 l-43 33 -173 -59 -174 -59 -37 19 c-20 10 -41 29
-45 41 -9 22 -140 290 -145 294 -6 6 -213 22 -219 17z m156 -1034 c181 -90
222 -335 81 -475 -66 -65 -124 -90 -209 -89 -82 0 -102 5 -160 38 -49 29 -86
70 -118 130 -33 62 -31 193 3 260 32 62 105 128 167 149 67 24 175 18 236 -13z"/>
</g>
</svg>
