<svg xmlns="http://www.w3.org/2000/svg" viewBox="0 0 151.27 57.5"><path d="M17 0v12.6H5.75V0H0v30.94h5.75v-13H17v13h5.7V0zm12.83 7.75H27v23.19h5.61V7.75zM27 0h5.61v5.11H27zm40.6 0l-5.52 21.8L56.84 0h-4.29l-5.2 21.8L41.79 0h-5.86l9 30.94h4.62l5.11-20.72 5.15 20.72h4.63L73.46 0zm30.55 0v8h-2.59v4.7h2.59V31h5.39V12.65h3.26V8h-3.26V0zm16 24a6.21 6.21 0 0 0 4.74 2.05 5.43 5.43 0 0 0 2.91-.84 5.67 5.67 0 0 0 2.06-2.21h6a10.9 10.9 0 0 1-4.18 5.83 11.74 11.74 0 0 1-7 2.18 11.43 11.43 0 0 1-8.4-3.46 11.46 11.46 0 0 1-3.47-8.41 11.52 11.52 0 0 1 3.47-8.43 11.4 11.4 0 0 1 8.4-3.48 11.85 11.85 0 0 1 7.09 2.21 11.12 11.12 0 0 1 4.23 5.9h-6a5.56 5.56 0 0 0-2.15-2.4 6.16 6.16 0 0 0-3.23-.83 6 6 0 0 0-4.53 2 6.88 6.88 0 0 0-1.88 4.89 7.15 7.15 0 0 0 1.92 5.1m37.11 6.9h-5.39V18.27a7.89 7.89 0 0 0-1.13-4.62 3.85 3.85 0 0 0-3.32-1.58 4 4 0 0 0-3.49 1.62 8.32 8.32 0 0 0-1.15 4.83V31h-5.39V0h5.39v9a7.43 7.43 0 0 1 5.51-2.34 9.17 9.17 0 0 1 6.64 3.26 10.6 10.6 0 0 1 2.34 7.22zm-68.5-19A6.22 6.22 0 0 0 78 14a7.08 7.08 0 0 0-1.9 5 7 7 0 0 0 1.9 5 6.55 6.55 0 0 0 9.26.21l.21-.21a7 7 0 0 0 1.92-5 7 7 0 0 0-1.91-5 6.23 6.23 0 0 0-4.74-2m11.5 19h-5v-3.19a10.72 10.72 0 0 1-15.16.07l-.34-.35a11.84 11.84 0 0 1-3.25-8.41 11.91 11.91 0 0 1 3.25-8.43 10.42 10.42 0 0 1 7.9-3.48 10.22 10.22 0 0 1 7.6 3.2V8h5zm-53.52 8.09l-1.27 6.21a4 4 0 0 1 3.36-2c2.1 0 2.89 1.74 2.89 3.44 0 2.93-2.12 6.57-6 6.57-1.68 0-3-.69-3-2.47a9.42 9.42 0 0 1 .3-1.44l2.08-10.31zm-2.08 10.35a4.2 4.2 0 0 0-.12 1.21c0 .91.51 1.42 1.54 1.42 2.47 0 4-2.95 4-5.07 0-1.19-.51-2.3-1.82-2.3s-2.89 1.46-3.36 3.72zm10.19-5.88l1 5.17c.22 1.09.34 1.8.44 2.51.26-.61.53-1.29 1-2.34l2.43-5.34h1.74l-3.58 7.28a17.84 17.84 0 0 1-3.31 5 6 6 0 0 1-2.79 1.66l-.4-1.41a6.34 6.34 0 0 0 1.76-.93A7.41 7.41 0 0 0 49 53a.67.67 0 0 0 .06-.43l-1.92-9zm62.93 3.13a3.44 3.44 0 0 1 2.71-5.54h6.15l-.55 1.5h-5a1.06 1.06 0 0 0-.83 1.64c.77 1.18 2.07 2 2.89 3.22a3.43 3.43 0 0 1-2.64 5.49h-6.76l.55-1.5h5.34a1.07 1.07 0 0 0 .85-1.62 31.37 31.37 0 0 0-2.71-3.2zM105.52 53h-3.36l4.37-11.87h3.36zM122 53h-3.36L123 41.13h3.36zm5.07-8.27A6.42 6.42 0 0 1 133 41h2.08a3.07 3.07 0 0 1 2.92 2.77 3.36 3.36 0 0 1 0 .78 1.92 1.92 0 0 1-.09.4 20.14 20.14 0 0 1-1.65 4.47 6.42 6.42 0 0 1-5.92 3.71h-2.08a3.07 3.07 0 0 1-2.91-2.73 3.25 3.25 0 0 1 0-.78 1.89 1.89 0 0 1 .09-.4 20 20 0 0 1 1.65-4.47zm6.36-2.48a2.94 2.94 0 0 0-2.73 1.91l-2.22 6a1.1 1.1 0 0 0-.08.46 1.23 1.23 0 0 0 1.13 1.23h.33a3 3 0 0 0 2.78-1.85l2.22-6a1.12 1.12 0 0 0 .08-.46 1.23 1.23 0 0 0-1.14-1.23zm-35.74 7l5.46-8.16h2l-7.6 11.43a1.13 1.13 0 0 1-.9.5h-2l-.93-11.87h3.38l.64 8.16zM141.57 45v-.15l-3 8.18h-1.77l4.39-11.87h2.19l3.16 8 3-8h1.73L146.85 53h-1.58a1.13 1.13 0 0 1-1-.69zm-66.09 8h-3.57l4.39-11.85h3.57zm-11-7.3h4.25l1.68-4.57H74l-4.12 11.16a1.13 1.13 0 0 1-1 .71H66l2.09-5.68H63.9L61.81 53h-3.57l4.37-11.87h3.57l-1.68 4.59zm19.68-.11L90 41.15h2.66l-5.94 4.56L90.47 53h-3a1.13 1.13 0 0 1-1.09-.64L84 47.78l-.89.68L81.44 53h-3.56l4.38-11.87h3.56l-1.64 4.46z" fill="#fff"/></svg>