<svg xmlns="http://www.w3.org/2000/svg" width="95.15" height="120.91" viewBox="0 0 95.15 120.91"><g fill="#fff" fill-rule="evenodd"><path d="M36.21 3.4L34 15.26 21 12.2v17.09h11v7.91H21v47.6l8 6 5.54-4.46 1.63 2-16.38 13.23a48.1 48.1 0 0 0-18-10.77l-.39-1.69a10.54 10.54 0 0 0 3.6-3.4 13.92 13.92 0 0 0 1.68-7V37.2H0v-7.91h6.65V12.2A146.63 146.63 0 0 0 22.67 0z"/><path d="M60 25.23l22 10.34 13.17-6.66v15.95l-12.75-2.49v32.2c0 5.2.31 8.71.91 10.54a28.62 28.62 0 0 0 5.05 8.37c4.08 5.26 6.14 9 6.14 11.26s-1.06 4.46-3.2 6.54-7.88 5.29-17.16 9.63a59 59 0 0 0-9.08-2.51 42.18 42.18 0 0 0-8.22-.83 83.73 83.73 0 0 0-21.62 3.34l-1-2.4L51 98.94l-16.73-12V35.57A79 79 0 0 0 60 25.23zm8.05 17l-19.42-6.66V82l10.51 7.6L68.05 79zm-21.3 65.86a100.05 100.05 0 0 1 14.85-1.49 41.3 41.3 0 0 1 10.31 1.34 49 49 0 0 1 10.51 4.11l2.91-1.86q-9.55-8.87-12.94-14.46a30.76 30.76 0 0 1-4.31-12z"/></g></svg>