<svg version="1" xmlns="http://www.w3.org/2000/svg" width="21.333" height="21.333" viewBox="0 0 16.000000 16.000000"><path d="M4.416 2.082c-.062.164-.182.49-.237.621a912.545 912.545 0 0 0-1.64 4.457c-.172.471-.347.939-.384 1.04l-.438 1.188c-1.425 3.858-1.71 4.64-1.684 4.65.01.008.825.011 1.808.011l1.79-.003.197-.53c.106-.292.26-.712.344-.932.08-.222.19-.526.248-.675.059-.15.38-1.023.716-1.936.336-.914.614-1.67.621-1.674.015-.018 4.256-.018 4.27 0 .011.008-.073.253-.182.545-.201.54-.46 1.245-.716 1.95-.08.22-.16.435-.18.475-.017.04-.248.665-.514 1.389-.263.723-.49 1.333-.497 1.351-.007.026.482.037 1.512.033 1.472-.004 1.535-.007 1.732-.08.245-.099.5-.34.61-.585.044-.095.369-.96.723-1.925.355-.964.749-2.042.88-2.393.132-.35.333-.902.45-1.223.117-.322.307-.833.42-1.133.113-.303.212-.566.215-.584a39.534 39.534 0 0 0 1.483-4.037l.026-.091h-1.8c-.99 0-1.809.007-1.816.018-.011.011-.391 1.037-.851 2.283a114.09 114.09 0 0 1-.859 2.302c-.018.025-.76.036-2.14.032a216.862 216.862 0 0 1-2.138-.01c-.014 0 .022-.125.08-.27.132-.34.308-.8.315-.848.007-.022.11-.307.234-.64l.347-.931c.066-.183.237-.65.383-1.041.146-.391.278-.753.293-.804l.025-.091H4.45l-.033.091z"/></svg>